<svg width="214" height="74" viewBox="0 0 214 74" fill="none" xmlns="http://www.w3.org/2000/svg">
<path d="M100.738 34.0725C101.368 38.4404 105.203 43.5161 111.235 42.9175C113.322 42.7112 115.118 41.7386 116.761 40.4707C117.603 39.8215 117.669 39.8195 118.392 40.5879C118.545 40.7517 118.681 40.9317 118.81 41.1157C119.211 41.69 119.248 42.1653 118.654 42.7153C116.6 44.6202 114.166 45.7284 111.469 46.3229C106.333 47.4553 101.576 46.5797 97.2949 43.4878C94.5541 41.508 93.0505 38.6851 92.3946 35.4354C91.5368 31.1787 92.0192 27.0919 94.4189 23.3731C96.5805 20.0243 99.6846 17.9354 103.525 17.0739C108.135 16.0406 112.505 16.6715 116.301 19.6846C118.34 21.3003 119.419 23.5186 119.813 26.0889C120.035 27.5408 120.023 28.9765 119.635 30.3921C119.213 31.9269 118.291 32.6751 116.701 32.7985C113.375 33.0573 110.046 33.2939 106.72 33.5568C104.74 33.7125 102.764 33.8965 100.734 34.0725H100.738ZM100.3 30.206C102.395 29.9553 104.371 29.7247 106.343 29.478C108.317 29.2313 110.291 28.9745 112.26 28.6955C112.426 28.6712 112.67 28.4568 112.696 28.2991C113.086 26.0727 112.852 23.9332 111.429 22.1072C108.589 18.4612 103.269 19.1629 101.457 23.3872C100.542 25.5186 100.413 27.7834 100.298 30.206H100.3Z" fill="#7348CD"/>
<path d="M148.758 16.004C152.197 16.004 153.917 17.6542 153.917 20.9523C153.917 23.5003 152.581 26.9926 149.911 31.4293C146.471 37.1299 143.835 42.1611 142.007 46.525C141.349 46.7818 140.616 46.9092 139.811 46.9092C139.006 46.9092 138.219 46.7535 137.452 46.442C136.683 46.1306 136.158 45.7828 135.873 45.3966C135.589 45.0124 134.967 43.6191 134.008 41.2167C133.048 38.8164 132.041 36.3048 130.989 33.682C129.938 31.0613 128.761 28.5315 127.463 26.0927C126.163 23.656 125.076 22.1616 124.198 21.6116C123.905 21.4276 123.027 21.282 121.564 21.1707C121.546 21.0251 121.519 20.8634 121.481 20.6895C121.445 20.5155 121.416 20.3821 121.398 20.2911C121.344 19.9069 121.344 19.5591 121.398 19.2456C124.05 17.7613 127.023 17.0192 130.317 17.0192C130.921 17.0192 131.369 17.0293 131.661 17.0475C132.412 17.8361 133.536 20.0585 135.038 23.7147C136.537 27.3708 138.394 32.7559 140.608 39.8679C144.542 28.4122 146.601 21.7673 146.782 19.9332C146.837 19.4761 146.865 18.9564 146.865 18.3801C146.865 17.8038 146.691 17.2477 146.344 16.7159C146.344 16.55 146.609 16.3903 147.139 16.2346C147.67 16.0789 148.209 16 148.758 16V16.004Z" fill="#7348CD"/>
<path d="M168.445 40.5859C170.238 42.2542 172.332 43.0873 174.73 43.0873C177.128 43.0873 179.542 42.052 181.976 39.9813C182.89 40.5859 183.449 41.3018 183.649 42.1268C181.966 44.0883 179.477 45.4917 176.185 46.333C174.849 46.6808 173.307 46.8547 171.562 46.8547C169.816 46.8547 168.007 46.5392 166.142 45.9063C164.278 45.2733 162.606 44.3532 161.135 43.1419C159.662 41.9327 158.495 40.3412 157.635 38.3716C156.776 36.402 156.346 34.216 156.346 31.8136C156.346 29.4113 156.786 27.2354 157.664 25.284C158.542 23.3326 159.702 21.733 161.149 20.4853C164.167 17.8646 167.626 16.5542 171.523 16.5542C174.944 16.5542 177.907 17.4804 180.414 19.3307C181.621 20.2467 182.585 21.4337 183.308 22.8917C184.03 24.3497 184.392 25.9938 184.392 27.8279C184.392 30.9623 183.358 32.6124 181.292 32.7782L164.935 34.0158C165.484 36.7296 166.655 38.9196 168.447 40.5879L168.445 40.5859ZM175.196 21.8887C173.989 20.6613 172.407 20.0465 170.449 20.0465C168.492 20.0465 167.01 20.9686 166.003 22.8109C164.996 24.6531 164.493 27.2051 164.493 30.4689C169.049 29.9734 173.166 29.4517 176.843 28.9017C176.954 28.2425 177.009 27.6095 177.009 27.0049C177.009 24.8229 176.405 23.1182 175.198 21.8908L175.196 21.8887Z" fill="#7348CD"/>
<path d="M207.003 27.4436C207.003 24.3092 206.291 22.7421 204.864 22.7421C203.82 22.7421 202.823 23.0393 201.873 23.6359C200.922 24.2324 199.897 25.0615 198.799 26.1252C198.799 27.9593 198.744 34.8267 198.633 46.2116C196.603 46.5594 194.942 46.7333 193.652 46.7333C192.362 46.7333 191.25 46.5594 190.318 46.2116C190.538 43.1682 190.647 37.6921 190.647 30.305V23.8704C190.647 22.4771 190.163 21.6521 189.192 21.3953C188.534 21.1931 187.646 21.0475 186.53 20.9544C186.4 20.4044 186.338 19.9878 186.338 19.7027C186.338 19.4176 186.346 19.1931 186.364 19.0293C188.998 17.545 192.255 16.8029 196.135 16.8029C196.774 16.8029 197.251 16.813 197.562 16.8312C198.092 17.7472 198.407 18.7017 198.508 19.6906C198.609 20.6814 198.686 21.6238 198.74 22.5237C201.192 19.5369 203.259 17.721 204.942 17.0799C205.748 16.7685 206.597 16.6128 207.495 16.6128C209.324 16.6128 210.793 17.1224 211.899 18.1395C213.005 19.1567 213.56 20.6471 213.56 22.6086C213.56 24.1111 213.011 25.3669 211.914 26.3759C210.834 27.3668 209.526 27.8602 207.99 27.8602C207.661 27.8602 207.332 27.8319 207.001 27.7773V27.4477L207.003 27.4436Z" fill="#7348CD"/>
<path d="M19.397 32.988L25.7647 27.2854C25.7506 26.978 25.7425 26.6686 25.7425 26.3572C25.7425 26.0074 25.7526 25.6596 25.7707 25.3138C25.9524 21.8862 27.0301 18.6951 28.7719 15.9733C32.1889 10.6306 38.167 7.09182 44.9706 7.09182C52.2748 7.09182 58.6283 11.1726 61.8818 17.1825L67.3109 12.3192C62.6992 4.88965 54.4868 0.00808876 44.9847 0C44.9767 0 44.9706 0 44.9625 0C44.9545 0 44.9484 0 44.9403 0C31.1394 0.0121331 20.059 10.3031 18.7875 23.7607C18.6987 24.6161 18.6543 25.4816 18.6543 26.3572C18.6543 27.0326 18.6826 27.7141 18.7391 28.3996C18.846 29.9001 19.0701 31.4329 19.397 32.988Z" fill="#7348CD"/>
<path d="M70.7059 20.8712L64.1909 26.7052C64.0052 37.1842 55.4699 45.6228 44.9668 45.6228C37.9937 45.6228 31.8884 41.904 28.5179 36.3389L22.2773 41.9282C26.8709 52.753 35.3659 64.0955 44.9547 73.9981C58.6689 59.8327 70.161 42.7229 71.1863 28.3978C71.2428 27.7122 71.271 27.0308 71.271 26.3553C71.271 25.4818 71.2246 24.6142 71.1378 23.7588C71.045 22.7781 70.8976 21.8135 70.7039 20.8691L70.7059 20.8712Z" fill="#7348CD"/>
<path d="M15.0775 41.4204C14.7102 43.6286 15.4408 45.9096 17.4873 47.7316C18.8073 49.0501 20.8457 50.2937 22.6238 50.9368C23.1385 51.1228 23.4796 50.8721 23.6976 50.4535C23.7682 50.32 23.8348 50.1805 23.8832 50.0389C24.1194 49.3655 24.0972 49.3271 23.4473 49.0218C22.5996 48.6254 21.2797 47.8327 20.4502 46.8216C20.0263 46.2372 19.7861 45.671 19.6953 45.123C19.6509 44.5507 19.6953 44.0452 19.8043 43.5922C20.2544 41.7338 21.4512 40.9977 23.1042 39.378L35.1674 28.5734C35.1674 28.5734 35.1775 28.5754 35.1816 28.5774C35.4096 28.6462 35.9485 28.7797 36.1705 28.8221C36.2311 28.8343 36.2916 28.8423 36.3501 28.8525C36.4067 28.8626 36.4612 28.8727 36.5177 28.8808C37.9506 29.085 39.428 28.808 40.7338 28.2741C41.856 27.8151 42.8813 27.1518 43.8117 26.3854C43.8682 26.3389 43.9247 26.2883 43.9813 26.2378C44.2699 25.9729 44.5343 25.6695 44.8067 25.3884C45.6685 24.5068 46.5283 23.6231 47.3901 22.7414C48.3064 21.8011 49.2247 20.8608 50.141 19.9204C50.5568 19.4958 50.9524 19.0266 51.3964 18.6323C51.8546 18.2259 51.8828 17.512 51.459 17.0307C51.0372 16.5555 50.3267 16.4989 49.8686 16.9054C49.8686 16.9054 49.0653 17.5221 49.0653 17.5201L41.2324 23.6251C40.9337 23.8536 40.4997 23.8051 40.2414 23.5119L40.2374 23.5078C39.977 23.2146 39.981 22.7778 40.2454 22.5089L47.933 14.7174C48.3912 14.3109 48.4215 13.5971 47.9956 13.1158C47.9774 13.0956 47.9573 13.0753 47.9391 13.0571C47.9391 13.0551 47.9351 13.0531 47.933 13.0511C47.9088 13.0268 47.8826 13.0046 47.8563 12.9843C47.8523 12.9823 47.8503 12.9783 47.8463 12.9763C47.822 12.956 47.7978 12.9399 47.7736 12.9217C47.7675 12.9176 47.7615 12.9136 47.7575 12.9095C47.7353 12.8933 47.711 12.8812 47.6868 12.8671C47.6787 12.863 47.6707 12.8569 47.6626 12.8529C47.6404 12.8408 47.6182 12.8307 47.596 12.8205C47.5859 12.8145 47.5738 12.8104 47.5617 12.8064C47.5415 12.7983 47.5213 12.7902 47.4991 12.7841C47.485 12.7801 47.4709 12.774 47.4567 12.77C47.4386 12.7639 47.4184 12.7599 47.4002 12.7538C47.3841 12.7498 47.3659 12.7457 47.3498 12.7417C47.3336 12.7376 47.3175 12.7356 47.2993 12.7336C47.2791 12.7295 47.2589 12.7275 47.2388 12.7255C47.2246 12.7255 47.2105 12.7235 47.1964 12.7215C47.1742 12.7215 47.15 12.7215 47.1278 12.7194C47.1156 12.7194 47.1055 12.7194 47.0934 12.7194C47.0672 12.7194 47.041 12.7215 47.0147 12.7255C47.0067 12.7255 46.9986 12.7255 46.9905 12.7275C46.9602 12.7316 46.932 12.7356 46.9017 12.7417C46.8977 12.7417 46.8916 12.7417 46.8876 12.7437C46.8533 12.7518 46.821 12.7599 46.7867 12.772C46.6494 12.8165 46.5182 12.8873 46.4032 12.9904L37.767 19.7122C37.4844 19.9285 37.0868 19.8942 36.8244 19.6414C36.8063 19.6252 36.7861 19.609 36.7699 19.5908C36.5782 19.3664 36.5358 19.063 36.6448 18.8123C36.6791 18.7375 36.7255 18.6647 36.7861 18.602L37.0364 18.3472C37.0364 18.3472 37.0384 18.3411 37.0404 18.3391L44.4737 10.8085C44.9319 10.402 44.9621 9.68817 44.5363 9.20689C44.1145 8.73168 43.404 8.67505 42.9459 9.08151L36.8366 13.7669C36.8366 13.7669 36.8305 13.7689 36.8285 13.771L34.4308 15.6091C34.4308 15.6091 34.4267 15.6132 34.4227 15.6152L34.3561 15.6658C34.3561 15.6658 34.3379 15.686 34.3076 15.7224C34.3056 15.7244 34.3036 15.7264 34.3016 15.7285C34.2955 15.7345 34.2895 15.7426 34.2814 15.7487C33.1431 16.8427 32.3136 18.0054 31.7727 19.1743C31.7646 19.1904 31.7565 19.2066 31.7485 19.2228C31.7404 19.241 31.7323 19.2592 31.7243 19.2774C31.7182 19.2895 31.7121 19.3017 31.7081 19.3138C31.7061 19.3199 31.7021 19.3259 31.7 19.334C31.696 19.3441 31.692 19.3542 31.6859 19.3684C31.6819 19.3765 31.6799 19.3846 31.6758 19.3927C31.6455 19.4634 31.6153 19.5342 31.587 19.607C31.581 19.6212 31.5749 19.6373 31.5688 19.6515C31.5608 19.6717 31.5527 19.6919 31.5446 19.7122C31.5426 19.7182 31.5406 19.7223 31.5386 19.7283C31.5345 19.7385 31.5305 19.7506 31.5265 19.7607C31.2742 20.424 31.1006 21.1237 31.034 21.8375C31.034 21.8456 31.034 21.8537 31.034 21.8618C31.034 21.8759 31.03 21.8901 31.03 21.9022C31.03 21.9083 31.03 21.9164 31.03 21.9224C31.03 21.9426 31.028 21.9649 31.0259 21.9851C31.0259 21.9871 31.0259 21.9891 31.0259 21.9912C31.0219 22.0599 31.0158 22.1307 31.0138 22.1995C31.0138 22.2075 31.0138 22.2136 31.0138 22.2217C31.0138 22.2298 31.0138 22.2379 31.0138 22.248C31.0138 22.2824 31.0118 22.3167 31.0118 22.3511C31.0118 22.3531 31.0118 22.3572 31.0118 22.3592C31.0118 22.428 31.0098 22.4947 31.0118 22.5635C31.0118 22.5695 31.0118 22.5756 31.0118 22.5837C31.0118 22.5958 31.0118 22.61 31.0118 22.6221C31.0118 22.6282 31.0118 22.6342 31.0118 22.6403C31.0118 22.6646 31.0138 22.6888 31.0138 22.7151C31.0138 22.7192 31.0138 22.7232 31.0138 22.7252C31.0158 22.792 31.0179 22.8567 31.0219 22.9234C31.0219 22.9295 31.0219 22.9355 31.0219 22.9416C31.0219 22.9477 31.0219 22.9537 31.0219 22.9618C31.0239 23.0002 31.028 23.0387 31.032 23.0751C31.032 23.0791 31.032 23.0832 31.032 23.0872C31.038 23.1519 31.0441 23.2146 31.0501 23.2793C31.0501 23.2854 31.0502 23.2894 31.0522 23.2955C31.0522 23.3076 31.0522 23.3197 31.0562 23.3299C31.0562 23.3339 31.0562 23.3379 31.0582 23.342C31.0764 23.4896 31.1026 23.6352 31.1309 23.7788C31.1309 23.7808 31.1309 23.7828 31.1309 23.7849C31.1309 23.7929 31.1329 23.801 31.1349 23.8091C31.1349 23.8132 31.1349 23.8172 31.1369 23.8213C31.139 23.8374 31.143 23.8516 31.147 23.8678C31.1632 23.9507 31.1813 24.0336 31.1995 24.1145C31.2056 24.1387 31.1914 24.1994 31.1995 24.2237L23.8267 30.8099L19.1847 34.9574C18.2099 35.8391 17.0413 36.8543 16.2945 37.9422C15.5639 39.0079 15.2692 40.1464 15.0876 41.4143" fill="#7348CD"/>
<path d="M66.1517 3.9372C65.629 3.7451 65.189 3.86441 64.9629 4.28907C64.8903 4.42455 64.7268 4.77035 64.6743 4.91594C64.4301 5.59742 64.6622 5.62776 65.3222 5.93917C66.182 6.34563 67.4212 7.14237 68.2608 8.17167C68.6907 8.76619 68.8784 9.25556 68.9692 9.80964C69.0116 10.392 68.9712 10.9036 68.8582 11.3627C68.6644 11.9875 68.4283 12.5821 67.9883 13.1341L67.8369 13.3181C67.4797 13.7388 67.0478 14.1978 66.6442 14.5739C66.1658 15.0188 65.962 15.2048 65.4594 15.674C65.4594 15.674 53.2347 26.5615 53.2307 26.5655C53.1903 26.5999 52.27 26.2642 52.1509 26.2399C50.8552 25.973 49.515 26.1247 48.2698 26.5473C44.2756 27.9001 41.0282 31.6877 39.6134 35.5723C38.9352 37.4328 38.5356 39.7542 39.6174 41.56C40.0998 42.3649 40.8364 43.0342 41.6942 43.4164C42.4147 43.74 43.2099 43.8775 43.995 43.9017C44.9012 43.93 45.8095 43.8107 46.6894 43.6045C47.6703 43.3739 48.6229 43.0322 49.5372 42.6096C50.506 42.1627 51.4304 41.6227 52.2982 41.0019C52.7745 40.6622 53.2327 40.2982 53.6686 39.9099C56.9403 37.004 57.9958 33.7827 57.2208 31.0527L69.4556 20.1531C70.4567 19.2593 71.6676 18.1977 72.4386 17.0895C73.1894 16.0117 73.472 14.8874 73.6617 13.6033C73.6577 13.6033 73.6718 13.5648 73.6678 13.5648C74.0532 11.3263 73.4235 9.08165 71.3508 7.22528C70.0127 5.88053 67.956 4.59644 66.1497 3.93518L66.1517 3.9372Z" fill="#7348CD"/>
</svg>
